<svg id="Layer_1" data-name="Layer 1" xmlns="http://www.w3.org/2000/svg" viewBox="0 0 430.25 376.78"><defs><style>.cls-1{fill:#ffed00;}.cls-2{fill:#fff;}.cls-3{font-size:24px;font-family:BodoniBT-Book, Bodoni Bk BT;}.cls-4{font-size:24px;font-family:BodoniMT-Bold, Bodoni MT;font-weight:700;}.cls-5{fill:#008d36;}.cls-6{fill:#ca9e67;}.cls-7{fill:#432918;opacity:0.1;}.cls-8{fill:#95c11f;}.cls-9{fill:#ffec00;}.cls-10{fill:#1d1d1b;}.cls-11{fill:#f5bc8f;}.cls-12{fill:#e8a878;}</style></defs><text x="32.85" y="30.18"/><text x="32.85" y="30.18"/><circle class="cls-1" cx="172.25" cy="171.78" r="132"/><circle class="cls-2" cx="169.65" cy="171.98" r="108.92"/><text class="cls-3" transform="translate(66.56 206.02) rotate(-105.5)">E</text><text class="cls-3" transform="translate(62.95 192.38) rotate(-100.13)">t</text><text class="cls-3" transform="translate(61.73 186.25) rotate(-95.42)">h</text><text class="cls-3" transform="translate(60.66 174.85) rotate(-89.72)">e</text><text class="cls-3" transform="translate(60.75 164.65) rotate(-85.03)">r</text><text class="cls-3" transform="translate(61.34 157.1) rotate(-80.36)">e</text><text class="cls-3" transform="translate(62.99 147.1) rotate(-74.71)">u</text><text class="cls-3" transform="translate(65.8 136.09) rotate(-67.4)">m</text><text class="cls-3" transform="matrix(0.48, -0.88, 0.88, 0.48, 72.45, 120.78)"> </text><text class="cls-3" transform="matrix(0.52, -0.85, 0.85, 0.52, 75.19, 115.69)">t</text><text class="cls-3" transform="translate(78.36 110.31) rotate(-53.73)">h</text><text class="cls-3" transform="matrix(0.67, -0.74, 0.74, 0.67, 85.14, 101.09)">e</text><text class="cls-3" transform="translate(92.03 93.53) rotate(-43.83)"> </text><text class="cls-3" transform="translate(96.05 89.49) rotate(-39.28)">S</text><text class="cls-3" transform="translate(104.88 82.29) rotate(-33.59)">c</text><text class="cls-3" transform="matrix(0.88, -0.47, 0.47, 0.88, 113.3, 76.64)">h</text><text class="cls-3" transform="translate(123.44 71.27) rotate(-22.34)">e</text><text class="cls-3" transform="translate(132.9 67.45) rotate(-18.05)">l</text><text class="cls-3" transform="matrix(0.97, -0.25, 0.25, 0.97, 138.94, 65.48)">l</text><text class="cls-3" transform="matrix(0.98, -0.2, 0.2, 0.98, 145.07, 63.86)">i</text><text class="cls-3" transform="matrix(0.99, -0.12, 0.12, 0.99, 151.21, 62.51)">n</text><text class="cls-3" transform="translate(162.58 61.2) rotate(-0.92)">g</text><text class="cls-3" transform="matrix(1, 0.06, -0.06, 1, 172.82, 61.11)"> </text><text class="cls-3" transform="translate(178.51 61.3) rotate(7.82)">p</text><text class="cls-3" transform="translate(189.85 62.88) rotate(13.47)">o</text><text class="cls-3" transform="translate(199.77 65.32) rotate(17.79)">i</text><text class="cls-3" transform="translate(205.8 67.13) rotate(22.45)">n</text><text class="cls-3" transform="translate(216.4 71.61) rotate(27.08)">t</text><text class="cls-3" transform="matrix(0.86, 0.5, -0.5, 0.86, 222.04, 74.49)"> </text><text class="cls-3" transform="translate(227.01 77.29) rotate(34.43)">o</text><text class="cls-3" transform="translate(235.39 83.1) rotate(38.77)">f</text><text class="cls-3" transform="translate(240.35 87.09) rotate(41.97)"> </text><text class="cls-3" transform="matrix(0.7, 0.71, -0.71, 0.7, 244.65, 90.95)">t</text><text class="cls-3" transform="matrix(0.64, 0.76, -0.76, 0.64, 249.12, 95.26)">h</text><text class="cls-3" transform="matrix(0.56, 0.83, -0.83, 0.56, 256.52, 104.07)">e</text><text class="cls-3" transform="matrix(0.5, 0.86, -0.86, 0.5, 262.23, 112.54)"> </text><text class="cls-3" transform="matrix(0.42, 0.91, -0.91, 0.42, 265.25, 117.29)">H</text><text class="cls-3" transform="translate(272.03 132.45) rotate(72.52)">o</text><text class="cls-3" transform="translate(275.13 142.09) rotate(78.2)">p</text><text class="cls-3" transform="matrix(0.11, 0.99, -0.99, 0.11, 277.45, 153.29)">e</text><text class="cls-3" transform="matrix(0.03, 1, -1, 0.03, 278.47, 163.46)">f</text><text class="cls-3" transform="translate(278.78 169.7) rotate(92.96)">u</text><text class="cls-3" transform="translate(278.09 181.2) rotate(97.65)">l</text><text class="cls-4" transform="matrix(1, 0.26, -0.25, 0.97, 131.58, 293.15)">O</text><text class="cls-4" transform="matrix(1.03, 0.11, -0.1, 0.99, 148.21, 297.54)">w</text><text class="cls-4" transform="matrix(1.04, -0.04, 0.03, 1, 165.84, 299.17)">o</text><text class="cls-4" transform="translate(178.86 298.63) rotate(-8.42) scale(1.04 1)">c</text><text class="cls-4" transform="translate(190.51 296.93) rotate(-15.4) scale(1.04 1)">k</text><text class="cls-4" transform="matrix(0.97, -0.38, 0.36, 0.93, 204.17, 292.95)">i</text><circle class="cls-5" cx="199.85" cy="107.73" r="22.26"/><circle class="cls-5" cx="172.88" cy="128.65" r="47.34"/><rect class="cls-6" x="171.54" y="156.46" width="12.42" height="110.39"/><rect class="cls-7" x="177.75" y="164.66" width="6.21" height="102.19"/><rect class="cls-6" x="135.68" y="136.05" width="48.12" height="11.37" transform="translate(-20.6 184.46) rotate(-44.95)"/><rect class="cls-7" x="138.21" y="142.17" width="44.55" height="5.69" transform="translate(-22.69 185.95) rotate(-44.95)"/><rect class="cls-6" x="117.47" y="138.7" width="11.37" height="48.12" transform="translate(-47.01 214.01) rotate(-58.81)"/><rect class="cls-7" x="123.31" y="138.98" width="5.69" height="44.55" transform="translate(-44.27 215.85) rotate(-58.81)"/><circle class="cls-8" cx="156" cy="141.92" r="22.26"/><circle class="cls-5" cx="142.22" cy="108.8" r="22.26"/><circle class="cls-8" cx="125.33" cy="129.71" r="22.26"/><circle class="cls-5" cx="211.1" cy="129.99" r="22.26"/><circle class="cls-8" cx="148.56" cy="171.78" r="23.74"/><circle class="cls-5" cx="200.01" cy="151.23" r="22.26"/><circle class="cls-8" cx="128.94" cy="153.66" r="22.26"/><polygon class="cls-9" points="121.17 131.57 118.01 128.26 121.48 119.05 124.49 128.42 121.17 131.57"/><path class="cls-10" d="M88.32,101.52,85.06,98.1l3.58-9.5,3.1,9.66Zm-3-3.46,3.06,3.21,3.21-3.06-2.92-9.06Z" transform="translate(32.85 30.18)"/><polygon class="cls-9" points="121.14 132.58 117.99 129.26 120.86 134.81 124.46 129.42 121.14 132.58"/><path class="cls-10" d="M88,104.8l-3.23-6.23,3.53,3.7,3.84-3.65Zm-2.49-5.19L88,104.45l3.07-4.58-2.8,2.66Z" transform="translate(32.85 30.18)"/><polygon class="cls-10" points="124.45 128.5 121.28 127.07 118.05 128.34 117.98 128.17 121.29 126.88 124.52 128.33 124.45 128.5"/><rect class="cls-10" x="82.21" y="95.05" width="12.52" height="0.18" transform="translate(24.04 211.42) rotate(-88.59)"/><polygon class="cls-9" points="123.8 162.13 120.64 158.82 124.11 149.61 127.12 158.97 123.8 162.13"/><path class="cls-10" d="M91,132.08l-3.26-3.42,3.58-9.5,3.1,9.66Zm-3-3.46L91,131.83l3.21-3.06-2.92-9.06Z" transform="translate(32.85 30.18)"/><polygon class="cls-9" points="123.78 163.14 120.62 159.82 123.49 165.37 127.09 159.98 123.78 163.14"/><path class="cls-10" d="M90.63,135.36l-3.23-6.23,3.53,3.7,3.84-3.65Zm-2.49-5.2L90.65,135l3.07-4.58-2.79,2.66Z" transform="translate(32.85 30.18)"/><polygon class="cls-10" points="127.08 159.06 123.91 157.63 120.68 158.9 120.61 158.73 123.92 157.44 127.15 158.89 127.08 159.06"/><rect class="cls-10" x="84.85" y="125.6" width="12.52" height="0.18" transform="translate(-3.94 243.86) rotate(-88.59)"/><polygon class="cls-9" points="145.29 131.41 141.99 128.25 145.02 118.89 148.46 128.1 145.29 131.41"/><path class="cls-10" d="M112.45,101.36,109,98.1l3.13-9.66L115.71,98ZM109.24,98l3.2,3.07,3.07-3.2L112.18,89Z" transform="translate(32.85 30.18)"/><polygon class="cls-9" points="145.32 132.42 142.01 129.25 145.13 134.66 148.48 129.11 145.32 132.42"/><path class="cls-10" d="M112.28,104.66l-3.51-6.08,3.69,3.53,3.67-3.83Zm-2.73-5.08,2.74,4.72,2.85-4.72-2.67,2.79Z" transform="translate(32.85 30.18)"/><polygon class="cls-10" points="148.43 128.19 145.19 126.91 142.02 128.33 141.95 128.17 145.19 126.72 148.49 128.02 148.43 128.19"/><rect class="cls-10" x="112.22" y="88.71" width="0.18" height="12.52" transform="translate(30.78 32.68) rotate(-1.26)"/><polygon class="cls-9" points="152.78 161.91 149.47 158.74 152.51 149.39 155.95 158.6 152.78 161.91"/><path class="cls-10" d="M119.94,131.86l-3.42-3.27,3.13-9.65,3.55,9.5Zm-3.21-3.32,3.2,3.06,3.07-3.2-3.34-8.92Z" transform="translate(32.85 30.18)"/><polygon class="cls-9" points="152.81 162.92 149.5 159.75 152.62 165.15 155.97 159.61 152.81 162.92"/><path class="cls-10" d="M119.77,135.15l-3.52-6.08,3.7,3.54,3.67-3.83ZM117,130.07l2.74,4.73,2.84-4.72L120,132.86Z" transform="translate(32.85 30.18)"/><polygon class="cls-10" points="155.91 158.68 152.68 157.41 149.51 158.83 149.44 158.66 152.68 157.21 155.98 158.52 155.91 158.68"/><rect class="cls-10" x="119.71" y="119.21" width="0.18" height="12.52" transform="translate(30.11 32.85) rotate(-1.26)"/><polygon class="cls-9" points="223.11 132.85 219.8 129.69 222.83 120.33 226.27 129.54 223.11 132.85"/><path class="cls-10" d="M190.26,102.8l-3.41-3.26L190,89.88l3.55,9.51Zm-3.21-3.32,3.21,3.07,3.06-3.2L190,90.43Z" transform="translate(32.85 30.18)"/><polygon class="cls-9" points="223.13 133.86 219.82 130.7 222.95 136.1 226.29 130.55 223.13 133.86"/><path class="cls-10" d="M190.1,106.1,186.58,100l3.7,3.54,3.66-3.84ZM187.37,101l2.73,4.72L193,101l-2.67,2.79Z" transform="translate(32.85 30.18)"/><polygon class="cls-10" points="226.24 129.63 223.01 128.35 219.84 129.77 219.76 129.61 223 128.16 226.31 129.46 226.24 129.63"/><rect class="cls-10" x="190.03" y="90.15" width="0.18" height="12.52" transform="translate(30.77 34.4) rotate(-1.26)"/><polygon class="cls-9" points="223 155.56 219.77 152.32 223.02 143.04 226.24 152.33 223 155.56"/><path class="cls-10" d="M190.15,125.51l-3.34-3.34,3.36-9.58,3.33,9.59ZM187,122.12l3.13,3.14,3.14-3.13-3.12-9Z" transform="translate(32.85 30.18)"/><polygon class="cls-9" points="223 156.57 219.76 153.33 222.76 158.81 226.24 153.34 223 156.57"/><path class="cls-10" d="M189.91,128.8l-3.38-6.16,3.62,3.63,3.75-3.75Zm-2.61-5.14,2.62,4.79,3-4.65-2.73,2.72Z" transform="translate(32.85 30.18)"/><polygon class="cls-10" points="226.21 152.42 223.01 151.06 219.8 152.41 219.73 152.24 223.01 150.87 226.28 152.25 226.21 152.42"/><rect class="cls-10" x="183.9" y="119.04" width="12.52" height="0.18" transform="translate(103.56 339.26) rotate(-89.9)"/><polygon class="cls-9" points="157.35 103.58 154.11 100.34 157.35 91.06 160.59 100.34 157.35 103.58"/><path class="cls-10" d="M124.5,73.53l-3.34-3.34,3.34-9.58,3.34,9.58Zm-3.13-3.39,3.13,3.14,3.14-3.14-3.14-9Z" transform="translate(32.85 30.18)"/><polygon class="cls-9" points="157.35 104.59 154.11 101.35 157.12 106.82 160.59 101.35 157.35 104.59"/><path class="cls-10" d="M124.27,76.82l-3.39-6.16,3.62,3.62,3.75-3.74Zm-2.62-5.14,2.63,4.79,3-4.66-2.73,2.73Z" transform="translate(32.85 30.18)"/><polygon class="cls-10" points="160.55 100.43 157.35 99.08 154.15 100.43 154.08 100.26 157.35 98.88 160.62 100.26 160.55 100.43"/><rect class="cls-10" x="157.26" y="91.06" width="0.18" height="12.52"/><polygon class="cls-9" points="199.94 161.15 196.71 157.91 199.94 148.63 203.18 157.91 199.94 161.15"/><path class="cls-10" d="M167.1,131.1l-3.34-3.34,3.34-9.59,3.34,9.59ZM164,127.71l3.14,3.13,3.13-3.13-3.13-9Z" transform="translate(32.85 30.18)"/><polygon class="cls-9" points="199.94 162.16 196.71 158.92 199.71 164.39 203.18 158.92 199.94 162.16"/><path class="cls-10" d="M166.86,134.39l-3.38-6.16,3.62,3.62,3.75-3.75Zm-2.62-5.14,2.63,4.78,2.95-4.65-2.72,2.73Z" transform="translate(32.85 30.18)"/><polygon class="cls-10" points="203.15 158 199.94 156.65 196.74 158 196.67 157.83 199.94 156.45 203.22 157.83 203.15 158"/><rect class="cls-10" x="199.85" y="148.63" width="0.18" height="12.52"/><polygon class="cls-9" points="204.88 131.37 201.36 128.44 203.73 118.9 207.81 127.85 204.88 131.37"/><path class="cls-10" d="M172,101.32l-3.63-3,2.45-9.85,4.2,9.23Zm-3.43-3.09,3.41,2.83,2.83-3.41L170.91,89Z" transform="translate(32.85 30.18)"/><polygon class="cls-9" points="204.97 132.37 201.45 129.44 204.94 134.62 207.9 128.85 204.97 132.37"/><path class="cls-10" d="M172.11,104.61l-3.94-5.82,3.94,3.28L175.5,98ZM169,99.74l3.06,4.52,2.51-4.9-2.47,3Z" transform="translate(32.85 30.18)"/><polygon class="cls-10" points="207.78 127.93 204.47 126.88 201.4 128.52 201.31 128.36 204.45 126.69 207.83 127.76 207.78 127.93"/><rect class="cls-10" x="171.37" y="88.69" width="0.18" height="12.52" transform="translate(24.86 46.3) rotate(-5.26)"/><polygon class="cls-9" points="144.86 183.58 141.63 180.34 144.86 171.06 148.1 180.34 144.86 183.58"/><path class="cls-10" d="M112,153.53l-3.35-3.34,3.35-9.58,3.34,9.58Zm-3.14-3.39,3.14,3.13,3.13-3.13-3.13-9Z" transform="translate(32.85 30.18)"/><polygon class="cls-9" points="144.86 184.59 141.63 181.35 144.63 186.82 148.1 181.35 144.86 184.59"/><path class="cls-10" d="M111.78,156.82l-3.39-6.16,3.63,3.62,3.74-3.75Zm-2.62-5.14,2.63,4.78,2.95-4.65L112,154.54Z" transform="translate(32.85 30.18)"/><polygon class="cls-10" points="148.06 180.43 144.86 179.08 141.66 180.43 141.59 180.26 144.86 178.88 148.13 180.26 148.06 180.43"/><rect class="cls-10" x="144.77" y="171.06" width="0.18" height="12.52"/><polygon class="cls-9" points="195.02 104.35 191.79 101.11 195.02 91.82 198.26 101.11 195.02 104.35"/><path class="cls-10" d="M162.18,74.29,158.83,71l3.35-9.58L165.52,71ZM159,70.91,162.18,74l3.13-3.13-3.13-9Z" transform="translate(32.85 30.18)"/><polygon class="cls-9" points="195.02 105.35 191.79 102.12 194.79 107.59 198.26 102.12 195.02 105.35"/><path class="cls-10" d="M161.94,77.58l-3.38-6.15,3.62,3.62,3.74-3.75Zm-2.62-5.13L162,77.23l3-4.65-2.72,2.72Z" transform="translate(32.85 30.18)"/><polygon class="cls-10" points="198.23 101.19 195.02 99.84 191.82 101.19 191.75 101.03 195.02 99.65 198.3 101.03 198.23 101.19"/><rect class="cls-10" x="194.93" y="91.82" width="0.18" height="12.52"/><path class="cls-11" d="M200.27,151.6c-1.31-.1-2.47-.26-4.93-2.07a66.11,66.11,0,0,0-7.56-4.68,18.29,18.29,0,0,1-2.42-1.28c-1-.35-4.09-1.38-4.88-1.54-1-.21-1.41-.71-3.08-1.26s-3.77-1.16-3.87-1.77.9-1.1,1.86-1.15,3.88,1.1,5.74,1.31c1.12.12,2.17.16,2.85.18-.23-2-.43-4-.43-4l1.09-2.48,1.33.75c1.31.81.75.87,2.67.82s2.36.25,2.92-.86,0-3.42.45-5.59,1.31-3.93,2.22-3.67,1.16.4,1.21,2.41-.46,5.75,0,7.11,1.76,1.91,2.11,4.08.56,3.57.56,3.57a2.43,2.43,0,0,0,1.66,1.61,27.78,27.78,0,0,1,2.77,1.26,4.15,4.15,0,0,1,.65,2.67C203.05,149.51,201.58,151.7,200.27,151.6Z" transform="translate(32.85 30.18)"/><path class="cls-11" d="M180.58,123.14c.14-.59,1.08,0,1.41.6.82,1.62.55,7,.55,7,.46,1.31-2.37,2.07-2.37,2.07S180,125.48,180.58,123.14Z" transform="translate(32.85 30.18)"/><path class="cls-11" d="M181.48,130.1a16,16,0,0,1,1.72-4.83c1-1.52,2.26-3.18,2.72-2.72a2.49,2.49,0,0,1,.55,2.51,26.61,26.61,0,0,1-2.17,4,15.93,15.93,0,0,0,.76,4.18,9.44,9.44,0,0,1-1.11,2.42c-.4.3-.6.2-1.21-.3A5.71,5.71,0,0,1,181.48,130.1Z" transform="translate(32.85 30.18)"/><path class="cls-12" d="M184,135.21a9.22,9.22,0,0,0,.38-2.06,13.74,13.74,0,0,1-.87-4.11s.81-.39,2.34-3.79a2.77,2.77,0,0,0-.41-2.64c.11-.08.34-.21.49-.06a2.49,2.49,0,0,1,.55,2.51,26.8,26.8,0,0,1-2.16,4,15.65,15.65,0,0,0,.75,4.18,9.44,9.44,0,0,1-1.11,2.42C183.7,135.87,183.89,135.49,184,135.21Z" transform="translate(32.85 30.18)"/><path class="cls-11" d="M179.22,125.51c.12-.54.95-.61,1.41,0s.55,2.41.75,4.28.15,2.36.76,3.22a29.11,29.11,0,0,1,2.11,2.62c.81,1.86-.3,4.38-.3,4.38-.25.35-3.78-2.92-4.28-5.14S178.81,127.32,179.22,125.51Z" transform="translate(32.85 30.18)"/><path class="cls-12" d="M183.54,135.82c-.32-.73-2-2-2.11-2.15-.35-.51-.35-1.92-.55-3.78s-.26-3.54-.71-4.15a1.61,1.61,0,0,0-.74-.56c.23-.27.79-.29,1.2.25s.55,2.42.75,4.28.15,2.37.76,3.22a29.11,29.11,0,0,1,2.11,2.62,4.57,4.57,0,0,1,.05,3.5c-.05.08-.11.18-.15.11A5.09,5.09,0,0,0,183.54,135.82Z" transform="translate(32.85 30.18)"/><path class="cls-12" d="M181.91,125.37a4.57,4.57,0,0,0-.68-1.93c-.13-.23-.34-.29-.53-.43h0c.15-.28.57-.13.77,0a4.53,4.53,0,0,1,1.2,3.3c-.15.26-.78,1.5-.91,1.78A14.2,14.2,0,0,0,181.91,125.37Z" transform="translate(32.85 30.18)"/><path class="cls-12" d="M195.41,149.57a67,67,0,0,0-7.55-4.69,16.63,16.63,0,0,1-2.42-1.27c-1.05-.36-4.1-1.38-4.89-1.55a3.59,3.59,0,0,1-.68-.21l0,0,.15.08a6.79,6.79,0,0,1,1.82.3,11,11,0,0,0,2.23.19,4.32,4.32,0,0,1,.94-.08,2.61,2.61,0,0,1,.71.46,20,20,0,0,0,1.82,1c1.53.81,3,1.75,4.56,2.46a6.24,6.24,0,0,0,3.67.7c.54.25-1.37.84-1.13,1.43s1.2.87,1.58,1.25c.21.21,1,.81.79,1.06A16.76,16.76,0,0,1,195.41,149.57Z" transform="translate(32.85 30.18)"/><path class="cls-12" d="M187.06,139.77c0-.64.47-1.16.34-1.79a6.59,6.59,0,0,1-.38-3v.11c0,1,.63,1.71.72,2.64a14.48,14.48,0,0,1-.11,1.73,7.12,7.12,0,0,0,.26,1.33C187.32,140.93,187.06,140.21,187.06,139.77Z" transform="translate(32.85 30.18)"/><path class="cls-12" d="M197.63,138.22v.09a.64.64,0,0,0,0-.07S197.61,138.19,197.63,138.22Z" transform="translate(32.85 30.18)"/><path class="cls-12" d="M197.53,144.11c0-.17.2-.34.25-.52a3.56,3.56,0,0,0,.05-.65,10.63,10.63,0,0,0-.12-1.7c-.06-.44-.11-.89-.16-1.33a6,6,0,0,1,.08-1.21c0-.13,0-.26,0-.39a3.44,3.44,0,0,1,.12,1.12,5.87,5.87,0,0,0,.31,1.44c.22.92.62,1.91,0,2.82C198,143.86,197.75,144.13,197.53,144.11Z" transform="translate(32.85 30.18)"/><path class="cls-12" d="M197.6,138.22v0h0Z" transform="translate(32.85 30.18)"/><polygon class="cls-9" points="176.21 146.65 159.91 130.35 176.21 83.59 192.51 130.35 176.21 146.65"/><path class="cls-10" d="M143.36,117.12l-16.82-16.83L143.36,52l16.82,48.25Zm-15.78-17.07,15.78,15.78,15.78-15.78L143.36,54.79Z" transform="translate(32.85 30.18)"/><polygon class="cls-9" points="176.21 151.73 159.91 135.43 175.04 162.97 192.51 135.43 176.21 151.73"/><path class="cls-10" d="M142.17,133.68l-17-31,18.23,18.23L162.24,102ZM129,107.81l13.23,24.09,14.87-23.44-13.73,13.73Z" transform="translate(32.85 30.18)"/><polygon class="cls-10" points="192.34 130.77 176.21 123.98 160.08 130.77 159.73 129.93 176.21 123 192.69 129.93 192.34 130.77"/><rect class="cls-10" x="175.76" y="83.59" width="0.91" height="63.06"/></svg>