<svg id="Layer_1" data-name="Layer 1" xmlns="http://www.w3.org/2000/svg" viewBox="0 0 247.61 222.56"><defs><style>.cls-1{fill:#fff;}.cls-1,.cls-2,.cls-5{stroke:#662483;}.cls-1,.cls-10,.cls-13,.cls-14,.cls-15,.cls-2,.cls-3,.cls-4,.cls-5,.cls-6,.cls-8,.cls-9{stroke-miterlimit:10;}.cls-1,.cls-3,.cls-5,.cls-6{stroke-width:0.75px;}.cls-10,.cls-2,.cls-4{fill:none;}.cls-2{stroke-width:7px;}.cls-3,.cls-5{fill:#e6007e;}.cls-3,.cls-4,.cls-6{stroke:#1d1d1b;}.cls-4{stroke-width:2px;}.cls-14,.cls-15,.cls-6{fill:#662483;}.cls-7,.cls-8{fill:#1dbfb3;}.cls-10,.cls-8,.cls-9{stroke:#82368c;}.cls-10,.cls-14,.cls-15,.cls-8,.cls-9{stroke-width:0.5px;}.cls-11,.cls-9{fill:#f39200;}.cls-12,.cls-13{fill:#f9b233;}.cls-13{stroke:#f39200;}.cls-14{font-size:12.91px;}.cls-14,.cls-15{stroke:#fff;font-family:MonotypeCorsiva, Monotype Corsiva;}.cls-15{font-size:11.41px;}</style></defs><rect class="cls-1" x="0.38" y="0.38" width="246.86" height="221.81" rx="8.98"/><path class="cls-2" d="M114.46,75.15C70.93,64.56,37.85,62.74,44.7,53.51c.91-1.22,1.79-2.8,6.41-4.07" transform="translate(-2.79 -19.82)"/><path class="cls-2" d="M139.21,78.85c36.31,26.83,59.27,50.83,61.65,40.28.31-1.39.91-3-1.17-7.21" transform="translate(-2.79 -19.82)"/><path class="cls-3" d="M144.3,78.79a17.71,17.71,0,0,1-16,17.6,14.61,14.61,0,0,1-1.76.09,17.67,17.67,0,0,1-17.69-17.69,16.94,16.94,0,0,1,.21-2.69,17.69,17.69,0,0,1,17.48-15,14.6,14.6,0,0,1,1.76.1A17.68,17.68,0,0,1,144.3,78.79Z" transform="translate(-2.79 -19.82)"/><path class="cls-4" d="M94.45,93.53" transform="translate(-2.79 -19.82)"/><path class="cls-5" d="M62.09,89.87a16.74,16.74,0,0,1-3.58,10.39H31.76a16.91,16.91,0,0,1-3.3-13.47H61.8A16.57,16.57,0,0,1,62.09,89.87Z" transform="translate(-2.79 -19.82)"/><path class="cls-5" d="M216.88,157.38a16.74,16.74,0,0,1-3.58,10.39H186.55A16.74,16.74,0,0,1,183,157.38a16.57,16.57,0,0,1,.29-3.08h33.33A16.57,16.57,0,0,1,216.88,157.38Z" transform="translate(-2.79 -19.82)"/><polygon class="cls-6" points="136.42 73.27 136.42 144.51 111 144.51 111 73.41 124.53 73.33 134.94 73.27 136.42 73.27"/><polygon class="cls-6" points="155.64 159.21 90.78 159.21 101.89 144.95 123.2 145.03 144.16 145.07 155.64 159.21"/><rect class="cls-6" x="25.39" y="160.07" width="195.65" height="38.11"/><polyline class="cls-7" points="190.1 119.3 189.79 119.3 197.46 104.85 205.12 119.3 204.95 119.3"/><polyline class="cls-8" points="204.41 119.16 204.55 119.16 204.28 118.94 204.28 118.94 204.27 118.93 197.2 113.12 190.12 118.93 190.11 118.94 190.11 118.94 189.84 119.16 189.51 119.3"/><polyline class="cls-7" points="205.66 119.3 205.57 119.3 205.41 119.3 205.38 119.41 205.37 119.41 197.63 124.32 197.29 124.18 189.33 119.42 189.61 119.3"/><polyline class="cls-9" points="197.63 124.18 197.63 122.14 197.63 121.36 197.63 121.2 197.63 113.2 197.63 104.88"/><polygon class="cls-7" points="205.68 119.76 197.51 133.71 189.33 119.76 189.58 119.76 197.35 128.31 205.13 119.76 205.68 119.76"/><line class="cls-10" x1="197.03" y1="132.33" x2="197.03" y2="127.1"/><circle class="cls-11" cx="40.96" cy="55.99" r="10.6"/><circle class="cls-12" cx="40.96" cy="54.67" r="10.6"/><circle class="cls-13" cx="40.96" cy="55" r="8.71"/><text class="cls-14" x="-2.79" y="-19.82"><tspan x="86.61" y="191.16" xml:space="preserve">    -Owocki-</tspan></text><text x="-2.79" y="-19.82"/><text class="cls-15" transform="translate(32.25 175.66) scale(0.99 1)">Ethereum the Schelling point of the Hopeful</text></svg>